<svg width="171" height="66" viewBox="0 0 171 66" fill="none" xmlns="http://www.w3.org/2000/svg">
<g filter="url(#filter0_d)">
<path fill-rule="evenodd" clip-rule="evenodd" d="M33 0V11.6C23.3902 11.6 15.6 19.3902 15.6 29C15.6 38.6098 23.3902 46.4 33 46.4C42.6098 46.4 50.4 38.6098 50.4 29H62C62 45.0163 49.0163 58 33 58C16.9837 58 4 45.0163 4 29C4 12.9837 16.9837 0 33 0Z" fill="#5528FF"/>
<path fill-rule="evenodd" clip-rule="evenodd" d="M33 5.80005H56.2V29H44.6V17.4001H33V5.80005Z" fill="#5528FF"/>
</g>
<path d="M95.9324 29.304C95.9324 28.152 95.7804 27.336 95.4764 26.856C95.1884 26.376 94.6844 26.136 93.9644 26.136C93.7404 26.136 93.5084 26.152 93.2684 26.184C93.0284 26.2 92.7964 26.224 92.5724 26.256V36H88.9964V23.808C89.3004 23.728 89.6524 23.648 90.0524 23.568C90.4684 23.472 90.9004 23.392 91.3484 23.328C91.8124 23.248 92.2844 23.192 92.7644 23.16C93.2444 23.112 93.7164 23.088 94.1804 23.088C95.0924 23.088 95.8284 23.208 96.3884 23.448C96.9644 23.672 97.4364 23.944 97.8044 24.264C98.3164 23.896 98.9004 23.608 99.5564 23.4C100.228 23.192 100.844 23.088 101.404 23.088C102.412 23.088 103.236 23.232 103.876 23.52C104.532 23.792 105.052 24.184 105.436 24.696C105.82 25.208 106.084 25.816 106.228 26.52C106.372 27.224 106.444 28.008 106.444 28.872V36H102.868V29.304C102.868 28.152 102.716 27.336 102.412 26.856C102.124 26.376 101.62 26.136 100.9 26.136C100.708 26.136 100.436 26.184 100.084 26.28C99.7484 26.376 99.4684 26.496 99.2444 26.64C99.3564 27.008 99.4284 27.4 99.4604 27.816C99.4924 28.216 99.5084 28.648 99.5084 29.112V36H95.9324V29.304ZM114.516 33.504C114.868 33.504 115.204 33.496 115.524 33.48C115.844 33.464 116.1 33.44 116.292 33.408V30.696C116.148 30.664 115.932 30.632 115.644 30.6C115.356 30.568 115.092 30.552 114.852 30.552C114.516 30.552 114.196 30.576 113.892 30.624C113.604 30.656 113.348 30.728 113.124 30.84C112.9 30.952 112.724 31.104 112.596 31.296C112.468 31.488 112.404 31.728 112.404 32.016C112.404 32.576 112.588 32.968 112.956 33.192C113.34 33.4 113.86 33.504 114.516 33.504ZM114.228 23.04C115.284 23.04 116.164 23.16 116.868 23.4C117.572 23.64 118.132 23.984 118.548 24.432C118.98 24.88 119.284 25.424 119.46 26.064C119.636 26.704 119.724 27.416 119.724 28.2V35.64C119.212 35.752 118.5 35.88 117.588 36.024C116.676 36.184 115.572 36.264 114.276 36.264C113.46 36.264 112.716 36.192 112.044 36.048C111.388 35.904 110.82 35.672 110.34 35.352C109.86 35.016 109.492 34.584 109.236 34.056C108.98 33.528 108.852 32.88 108.852 32.112C108.852 31.376 108.996 30.752 109.284 30.24C109.588 29.728 109.988 29.32 110.484 29.016C110.98 28.712 111.548 28.496 112.188 28.368C112.828 28.224 113.492 28.152 114.18 28.152C114.644 28.152 115.052 28.176 115.404 28.224C115.772 28.256 116.068 28.304 116.292 28.368V28.032C116.292 27.424 116.108 26.936 115.74 26.568C115.372 26.2 114.732 26.016 113.82 26.016C113.212 26.016 112.612 26.064 112.02 26.16C111.428 26.24 110.916 26.36 110.484 26.52L110.028 23.64C110.236 23.576 110.492 23.512 110.796 23.448C111.116 23.368 111.46 23.304 111.828 23.256C112.196 23.192 112.58 23.144 112.98 23.112C113.396 23.064 113.812 23.04 114.228 23.04ZM129.893 29.304C129.893 28.152 129.741 27.336 129.437 26.856C129.149 26.376 128.645 26.136 127.925 26.136C127.701 26.136 127.469 26.152 127.229 26.184C126.989 26.2 126.757 26.224 126.533 26.256V36H122.957V23.808C123.261 23.728 123.613 23.648 124.013 23.568C124.429 23.472 124.861 23.392 125.309 23.328C125.773 23.248 126.245 23.192 126.725 23.16C127.205 23.112 127.677 23.088 128.141 23.088C129.053 23.088 129.789 23.208 130.349 23.448C130.925 23.672 131.397 23.944 131.765 24.264C132.277 23.896 132.861 23.608 133.517 23.4C134.189 23.192 134.805 23.088 135.365 23.088C136.373 23.088 137.197 23.232 137.837 23.52C138.493 23.792 139.013 24.184 139.397 24.696C139.781 25.208 140.045 25.816 140.189 26.52C140.333 27.224 140.405 28.008 140.405 28.872V36H136.829V29.304C136.829 28.152 136.677 27.336 136.373 26.856C136.085 26.376 135.581 26.136 134.861 26.136C134.669 26.136 134.397 26.184 134.045 26.28C133.709 26.376 133.429 26.496 133.205 26.64C133.317 27.008 133.389 27.4 133.421 27.816C133.453 28.216 133.469 28.648 133.469 29.112V36H129.893V29.304ZM155.461 29.664C155.461 30.656 155.317 31.568 155.029 32.4C154.741 33.216 154.325 33.92 153.781 34.512C153.237 35.088 152.581 35.536 151.813 35.856C151.061 36.176 150.213 36.336 149.269 36.336C148.341 36.336 147.493 36.176 146.725 35.856C145.973 35.536 145.325 35.088 144.781 34.512C144.237 33.92 143.813 33.216 143.509 32.4C143.205 31.568 143.053 30.656 143.053 29.664C143.053 28.672 143.205 27.768 143.509 26.952C143.829 26.136 144.261 25.44 144.805 24.864C145.365 24.288 146.021 23.84 146.773 23.52C147.541 23.2 148.373 23.04 149.269 23.04C150.181 23.04 151.013 23.2 151.765 23.52C152.533 23.84 153.189 24.288 153.733 24.864C154.277 25.44 154.701 26.136 155.005 26.952C155.309 27.768 155.461 28.672 155.461 29.664ZM151.813 29.664C151.813 28.56 151.589 27.696 151.141 27.072C150.709 26.432 150.085 26.112 149.269 26.112C148.453 26.112 147.821 26.432 147.373 27.072C146.925 27.696 146.701 28.56 146.701 29.664C146.701 30.768 146.925 31.648 147.373 32.304C147.821 32.944 148.453 33.264 149.269 33.264C150.085 33.264 150.709 32.944 151.141 32.304C151.589 31.648 151.813 30.768 151.813 29.664ZM158.231 23.808C158.839 23.632 159.623 23.472 160.583 23.328C161.543 23.168 162.551 23.088 163.607 23.088C164.679 23.088 165.567 23.232 166.271 23.52C166.991 23.792 167.559 24.184 167.975 24.696C168.391 25.208 168.687 25.816 168.863 26.52C169.039 27.224 169.127 28.008 169.127 28.872V36H165.551V29.304C165.551 28.152 165.399 27.336 165.095 26.856C164.791 26.376 164.223 26.136 163.391 26.136C163.135 26.136 162.863 26.152 162.575 26.184C162.287 26.2 162.031 26.224 161.807 26.256V36H158.231V23.808Z" fill="#202020"/>
<defs>
<filter id="filter0_d" x="0" y="0" width="66" height="66" filterUnits="userSpaceOnUse" color-interpolation-filters="sRGB">
<feFlood flood-opacity="0" result="BackgroundImageFix"/>
<feColorMatrix in="SourceAlpha" type="matrix" values="0 0 0 0 0 0 0 0 0 0 0 0 0 0 0 0 0 0 127 0"/>
<feOffset dy="4"/>
<feGaussianBlur stdDeviation="2"/>
<feColorMatrix type="matrix" values="0 0 0 0 0 0 0 0 0 0 0 0 0 0 0 0 0 0 0.25 0"/>
<feBlend mode="normal" in2="BackgroundImageFix" result="effect1_dropShadow"/>
<feBlend mode="normal" in="SourceGraphic" in2="effect1_dropShadow" result="shape"/>
</filter>
</defs>
</svg>
