<svg width="81" height="61" viewBox="0 0 81 61" fill="none" xmlns="http://www.w3.org/2000/svg">
<path d="M38.6756 22.0587C39.821 21.4716 41.179 21.4716 42.3244 22.0587L71.3616 36.9403C74.2625 38.427 74.2625 42.573 71.3616 44.0597L42.3244 58.9413C41.179 59.5284 39.821 59.5284 38.6756 58.9413L9.63837 44.0597C6.73752 42.573 6.73752 38.427 9.63837 36.9403L38.6756 22.0587Z" stroke="#5528FF" stroke-width="2"/>
<path d="M38.6756 12.0587C39.821 11.4716 41.179 11.4716 42.3244 12.0587L71.3616 26.9403C74.2625 28.427 74.2625 32.573 71.3616 34.0597L42.3244 48.9413C41.179 49.5284 39.821 49.5284 38.6756 48.9413L9.63837 34.0597C6.73752 32.573 6.73752 28.427 9.63837 26.9403L38.6756 12.0587Z" fill="white" stroke="#5528FF" stroke-width="2"/>
<path d="M38.6756 2.05867C39.821 1.47164 41.179 1.47164 42.3244 2.05867L71.3616 16.9403C74.2625 18.427 74.2625 22.573 71.3616 24.0597L42.3244 38.9413C41.179 39.5284 39.821 39.5284 38.6756 38.9413L9.63837 24.0597C6.73752 22.573 6.73752 18.427 9.63837 16.9403L38.6756 2.05867Z" fill="white" stroke="#5528FF" stroke-width="2"/>
</svg>
